<?xml version="1.0" encoding="utf-8"?>
<!-- Generator: Adobe Illustrator 14.0.0, SVG Export Plug-In . SVG Version: 6.00 Build 43363)  -->
<!DOCTYPE svg PUBLIC "-//W3C//DTD SVG 1.1//EN" "http://www.w3.org/Graphics/SVG/1.1/DTD/svg11.dtd">
<svg version="1.1" id="Layer_1" xmlns="http://www.w3.org/2000/svg" xmlns:xlink="http://www.w3.org/1999/xlink" x="0px" y="0px"
	 width="916px" height="916px" viewBox="0 0 916 916" enable-background="new 0 0 916 916" xml:space="preserve">
<g>
	<path fill="#FAA541" stroke="#FBB040" stroke-width="0.5" d="M777.927,435.129c0-55.965-148.258-101.334-331.155-101.334
		c-182.888,0-331.149,45.369-331.149,101.334s148.262,101.334,331.149,101.334C629.669,536.463,777.927,491.094,777.927,435.129z"/>
	<path fill="#AED24B" d="M779.091,477.807c0.059-5.893,0.07-11.785,0.07-17.678s-0.012-11.785-0.07-17.678
		c0-0.032-0.566-6.854-0.176-7.322c-7.805,9.339-15.605,18.677-23.406,28.015c-3.164,3.79-6.332,7.579-9.496,11.368
		c-0.445,0.532-6.027-6.604-6.68-7.388c-8.727-10.442-17.453-20.885-26.18-31.327c-1.211-1.445-4.125,3.598-5.043,4.697
		c-5.09,6.091-10.18,12.182-15.27,18.272c-3.973,4.753-7.945,9.506-11.918,14.258c-2.426,2.906-2.883,0.129-5.109-2.534
		c-9.148-10.944-18.293-21.889-27.438-32.832c-2.355-2.817-1.875-2.817-4.23,0c-4.609,5.517-9.223,11.033-13.832,16.551
		c-4.539,5.427-9.074,10.854-13.609,16.281c-2.227,2.663-2.684,5.44-5.113,2.534c-9.062-10.844-18.125-21.688-27.188-32.53
		c-0.918-1.1-3.836-6.143-5.043-4.697c-3.871,4.63-7.738,9.26-11.609,13.89c-1.773,2.123-21.25,24.833-21.254,24.825
		c-8.477-10.141-16.953-20.282-25.43-30.423c-2.496-2.987-4.992-5.974-7.488-8.96c0.23,0.277-8.089,9.676-8.601,10.289
		c-8.172,9.773-16.34,19.546-24.512,29.319c0.461-0.549-20.598-24.49-22.289-26.513c-3.461-4.143-6.926-8.285-10.387-12.428
		c-1.211-1.446-5.023,4.671-5.984,5.821c-8.922,10.677-17.848,21.354-26.77,32.029c-1.828,2.189-3.09-1.362-4.59-3.157
		c-4.957-5.935-9.914-11.869-14.875-17.804c-4.188-5.01-8.375-10.02-12.562-15.028c-2.695-3.227-2.254-2.361-4.933,0.848
		c-9.172,10.978-18.347,21.954-27.519,32.932c-2.125,2.544-2.109,4.229-4.316,1.587c-4.391-5.256-8.78-10.512-13.171-15.768
		c-4.672-5.588-9.336-11.176-14.007-16.763c-1.512-1.81-3.52-6.518-5.457-4.198c-8.921,10.676-17.843,21.353-26.761,32.029
		c-0.594,0.708-5.203,6.757-5.676,6.187c-3.565-4.265-7.128-8.528-10.69-12.793c-7.323-8.763-14.644-17.525-21.966-26.287
		c-0.078-0.095-17.199,19.977-18.742,21.825c-3.951,4.727-7.901,9.454-11.851,14.181c-1.483,1.774-2.109,4.233-3.799,2.21
		c-8.231-9.853-16.464-19.706-24.695-29.559c-2.473-2.961-4.948-5.922-7.421-8.883c-0.004-0.006-5.108,5.959-5.487,6.412
		c-8.541,10.223-17.083,20.445-25.624,30.667c-1.943,2.326-1.652,3.082-3.609,0.739c-3.557-4.256-7.112-8.512-10.668-12.768
		c-6.999-8.376-13.997-16.752-20.996-25.128c0.391,0.468-0.177,7.291-0.177,7.322c-0.057,5.893-0.072,11.785-0.072,17.678
		s0.016,11.785,0.072,17.678c0.004,0.38-0.444,6.579,0.177,7.322c0.584,0.699,1.168,1.397,1.752,2.097l57.554,351.279
		c0,20.984,122.228,38,272.992,38c150.772,0,272.999-17.016,272.999-38l57.875-353.232c0.039-0.048,0.082-0.096,0.121-0.144
		C779.536,484.386,779.087,478.187,779.091,477.807z"/>
	<path fill="#EF60A1" d="M536.155,81.533c-19.799-9.528-39.19-2.982-56.347-15.873c-17.157-12.892-3.243-75.753-12.392-50.582
		c-19.444,8.007-21.154,41.969-32.808,41.969c-11.651,0-30.144,30.805-52.578,31.195c-22.436,0.39-88.86,73.595-54.496,73.593
		c30.808,0-3.732-6.966-45.975,12.286c-42.473,19.361-80.865,94.719-32.674,96.439c19.178,12.912-12.919-22.658-48.104,7.113
		c-35.635,30.153-58.834,96.324-2.987,114.173c63.402,12.587,79.698,8.434,132.328,16.441c52.632,8.01,139.588,7.035,194.51,3.603
		c54.922-3.435,151.965-15.42,151.965-15.42s60.301-8.329,60.301-81.38c-15.943-64.305-113.828-91.48-87.402-72.712
		c26.428,18.768,26.475-50.927-13.264-70.02c-43.969-21.124-108.008-11.642-59.596-11.642
		C587.921,160.02,586.929,105.974,536.155,81.533z"/>
	<g>
		<g>
			<g>
				<path fill="#FBD9E8" stroke="#FBD9E8" stroke-width="3" d="M431.356,349.584c14.687-2.22,28.009-4.854,40.629-9.816
					c12.693-4.701,25.3-10.855,38.854-14.503c26.387-6.258,48.014-10.277,66.807-16.559c37.889-13.015,64.37-10.536,63.933-7.933
					c-0.13,2.479-23.826,4.229-59.772,19.96c-18.063,7.819-42.306,13.88-66.323,20.453c-11.53,3.484-23.468,9.645-37.206,15.055
					c-13.695,5.676-29.302,8.932-44.277,11.147c-60.993,8.198-115.49,4.255-154.007,7.239c-19.31,1.541-35.569,3.034-46.782,2.545
					c-11.257-0.357-17.375-2.117-17.302-3.23c0.068-1.364,6.135-1.99,16.859-3.76c10.788-1.649,26.045-4.961,45.793-8.201
					C318.278,355.664,373.158,357.486,431.356,349.584z"/>
			</g>
		</g>
	</g>
	<g>
		<g>
			<g>
				<path fill="#FBD9E8" stroke="#FBD9E8" stroke-width="3" d="M650.066,342.305c2.498-3.89,5.129-8.556,8.216-12.895l2.356-3.198
					l0.601-0.782c0.258-0.326-0.154,0.18,0.654-0.828l0.387-0.391l1.546-1.542c2.004-2.06,4.322-3.815,6.615-5.297
					c9.463-6.037,18.554-7.152,24.99-8.331c13.051-1.601,19.489-5.145,21.437-3.438c2.086,1.55-4.133,10.55-17.831,15.643
					c-6.469,2.764-13.661,5.22-19.017,9.665c-5.54,4.064-8.596,11.294-14.848,21.182c-6.044,10.565-18.326,18.188-28.063,20.013
					c-9.585,2.445-18.174,2.895-25.267,2.794c-14.208-0.306-22.599-2.969-22.611-5.343c-0.028-2.583,8.471-4.463,21.374-7.323
					c6.421-1.456,13.994-3.16,21.637-5.983C639.859,353.54,645.46,349.86,650.066,342.305z"/>
			</g>
		</g>
	</g>
	<g>
		<g>
			<g>
				<path fill="#FBD9E8" stroke="#FBD9E8" stroke-width="3" d="M364.312,285.583c22.402-2.662,43.741-5.451,63.187-7.867
					c18.871-1.812,34.926-7.424,50.172-10.612c31.362-7.023,50.324,4.059,49.072,5.677c-0.678,2.938-18.885-2.769-45.837,6.632
					c-13.438,4.346-30.68,11.764-50.96,14.707c-19.421,3.333-40.852,6.645-63.477,9.333c-90.624,11.514-165.031,6.583-164.833,1.774
					C201.722,300.094,274.813,296.962,364.312,285.583z"/>
			</g>
		</g>
	</g>
	<g>
		<g>
			<g>
				<path fill="#FFFFFF" stroke="#FFFFFF" stroke-width="3" d="M431.662,209.102c9.818,0.081,20.188,0.584,28.844,0.884
					c8.634,0.106,16.997-0.823,24.771-2.471c15.57-3.353,28.584-9.898,37.598-17.525c18.277-15.567,19.985-33.05,22.795-32.359
					c1.144,0.11,2.281,4.361,1.08,12.08c-1.154,7.602-5.23,18.949-15.044,29.442c-9.65,10.529-24.577,19.625-42.467,24.466
					c-8.946,2.405-18.613,3.864-28.716,4c-10.068-0.085-19.075-0.433-29.119-0.52c-39.413-0.406-75.7-0.788-101.871-3.823
					c-26.2-2.868-42.012-7.388-41.689-9.776c0.328-2.536,16.455-2.522,42.279-2.937
					C355.969,210.322,391.637,208.693,431.662,209.102z"/>
			</g>
		</g>
	</g>
	<g>
		<g>
			<g>
				<path fill="#FFFFFF" stroke="#FFFFFF" stroke-width="3" d="M608.346,232.33c-1.636,14.797-8.826,27.982-16.18,34.588
					c-7.368,6.745-13.467,8.286-14.922,6.51c-3.109-4.257,11.229-19.138,13.245-43.362c2.023-24.469,3.438-48.074,9.121-47.732
					c2.499,0.027,4.735,5.373,6.681,14.108C608.126,205.174,610.032,217.617,608.346,232.33z"/>
			</g>
		</g>
	</g>
	<g>
		<g>
			<g>
				<rect x="9.596" y="217.932" fill="#CA4498" stroke="#CA4498" width="0" height="0"/>
			</g>
		</g>
	</g>
	<g>
		<g>
			<g>
				<path fill="#FFFFFF" stroke="#FFFFFF" stroke-width="3" d="M383.979,107.993c6.906-9.479,15.423-13.837,21.791-17.87
					c6.554-3.923,12.054-7.143,15.872-10.343c7.845-6.049,9.535-12.893,12.265-12.819c2.154-0.495,5.566,9.374-2.748,21.268
					c-7.314,11.568-24.817,19.895-32.51,30.195c-4.833,6.75-8.684,13.583-12.908,20.485c-4.036,6.781-9.949,14.02-16.718,17.107
					c-13.417,5.76-21.128,2.384-21.378,0.462c-0.608-2.677,7.392-4.963,14.451-11.138
					C368.798,140.314,372.435,124.138,383.979,107.993z"/>
			</g>
		</g>
	</g>
	<g>
		<g>
			<g>
				<path fill="#FFFFFF" stroke="#FFFFFF" stroke-width="3" d="M430.185,130.908c2.101-3.844,4.092-7.736,6.085-11.476
					c0.951-1.809,2.064-3.923,2.865-5.378c1.205-2.428,2.458-4.325,3.675-6.093c4.915-6.951,9.324-11.999,12.582-16.47
					c6.874-8.667,6.64-14.05,8.662-15.521c1.01-0.516,3.318,0.81,4.544,5.01c1.211,4.162,0.409,10.265-1.948,16.446
					c-2.308,6.152-6.192,12.746-9.696,19.198c-0.858,1.598-1.665,3.21-2.174,4.556c-0.995,2.28-1.744,3.966-2.683,6.028
					c-1.841,3.974-3.798,8.083-6.077,12.259c-8.727,16.845-21.507,30.739-32.843,37.122c-11.206,6.71-19.464,7.223-20.375,5.15
					c-1.15-2.406,4.857-7.012,12.533-15.174C413.22,158.567,422.005,146.498,430.185,130.908z"/>
			</g>
		</g>
	</g>
	<g>
		<g>
			<g>
				<path fill="#FFFFFF" stroke="#FFFFFF" stroke-width="3" d="M487.214,110.493c-8.921-14.755-7.375-29.914-2.501-30.422
					c5.051-0.683,10.759,9.409,17.979,21.234c7.349,11.995,12.593,23.978,8.618,27.182
					C507.602,131.52,496.043,124.795,487.214,110.493z"/>
			</g>
		</g>
	</g>
	<polygon fill="#F6ED4E" stroke="#FBDBE9" points="313.893,446.281 291.226,478.486 313.893,861.153 337.85,471.819 	"/>
	<polygon fill="#F6ED4E" stroke="#FBDBE9" points="446.422,446.281 425.893,474.486 446.422,863.782 471.227,474.486 	"/>
	<polygon fill="#F6ED4E" stroke="#FBDBE9" points="578.196,446.281 556.56,475.153 572.56,859.819 600.56,474.153 	"/>
	<polygon fill="#F6ED4E" stroke="#FBDBE9" points="181.559,446.281 158.559,476.153 201.735,843.976 205.559,474.153 	"/>
	<polygon fill="#F6ED4E" stroke="#FBDBE9" points="712.247,446.281 690.913,475.82 690.913,835.819 736.899,475.82 	"/>
</g>
</svg>
