<?xml version="1.0" encoding="utf-8"?>
<!-- Generator: Adobe Illustrator 14.0.0, SVG Export Plug-In . SVG Version: 6.00 Build 43363)  -->
<!DOCTYPE svg PUBLIC "-//W3C//DTD SVG 1.1//EN" "http://www.w3.org/Graphics/SVG/1.1/DTD/svg11.dtd">
<svg version="1.1" id="Layer_1" xmlns="http://www.w3.org/2000/svg" xmlns:xlink="http://www.w3.org/1999/xlink" x="0px" y="0px"
	 width="934.453px" height="934.453px" viewBox="0 0 934.453 934.453" enable-background="new 0 0 934.453 934.453"
	 xml:space="preserve">
<path fill="#FAA541" stroke="#FBB040" stroke-width="0.5" d="M789.314,473.009c0-55.965-148.258-101.334-331.155-101.334
	c-182.888,0-331.149,45.369-331.149,101.334s148.262,101.334,331.149,101.334C641.057,574.343,789.314,528.974,789.314,473.009z"/>
<path fill="#B2D33B" d="M790.479,515.687c0.059-5.893,0.07-11.785,0.07-17.678s-0.012-11.785-0.07-17.678
	c0-0.032-0.566-6.854-0.176-7.322c-7.805,9.339-15.605,18.677-23.406,28.015c-3.164,3.79-6.332,7.579-9.496,11.368
	c-0.445,0.532-6.027-6.604-6.68-7.388c-8.727-10.442-17.453-20.885-26.18-31.327c-1.211-1.445-4.125,3.598-5.043,4.697
	c-5.09,6.091-10.18,12.182-15.27,18.272c-3.973,4.753-7.945,9.506-11.918,14.258c-2.426,2.906-2.883,0.129-5.109-2.534
	c-9.148-10.944-18.293-21.889-27.438-32.832c-2.355-2.817-1.875-2.817-4.23,0c-4.609,5.517-9.223,11.033-13.832,16.551
	c-4.539,5.427-9.074,10.854-13.609,16.281c-2.227,2.663-2.684,5.44-5.113,2.534c-9.062-10.844-18.125-21.688-27.188-32.53
	c-0.918-1.1-3.836-6.143-5.043-4.697c-3.871,4.63-7.738,9.26-11.609,13.89c-1.773,2.123-21.25,24.833-21.254,24.825
	c-8.477-10.141-16.953-20.282-25.43-30.423c-2.496-2.987-4.992-5.974-7.488-8.96c0.23,0.277-8.089,9.676-8.601,10.289
	c-8.172,9.773-16.34,19.546-24.512,29.319c0.461-0.549-20.598-24.49-22.289-26.513c-3.461-4.143-6.926-8.285-10.387-12.428
	c-1.211-1.446-5.023,4.671-5.984,5.821c-8.922,10.677-17.848,21.354-26.77,32.029c-1.828,2.189-3.09-1.362-4.59-3.157
	c-4.957-5.935-9.914-11.869-14.875-17.804c-4.188-5.01-8.375-10.02-12.562-15.028c-2.695-3.227-2.254-2.361-4.933,0.848
	c-9.172,10.978-18.347,21.954-27.519,32.932c-2.125,2.544-2.109,4.229-4.316,1.587c-4.391-5.256-8.78-10.512-13.171-15.768
	c-4.672-5.588-9.336-11.176-14.007-16.763c-1.512-1.81-3.52-6.518-5.457-4.198c-8.921,10.676-17.843,21.353-26.761,32.029
	c-0.594,0.708-5.203,6.757-5.676,6.187c-3.565-4.265-7.128-8.528-10.69-12.793c-7.323-8.763-14.644-17.525-21.966-26.287
	c-0.078-0.095-17.199,19.977-18.742,21.825c-3.951,4.727-7.901,9.454-11.851,14.181c-1.483,1.774-2.109,4.233-3.799,2.21
	c-8.231-9.853-16.464-19.706-24.695-29.559c-2.473-2.961-4.948-5.922-7.421-8.883c-0.004-0.006-5.108,5.959-5.487,6.412
	c-8.541,10.223-17.083,20.445-25.624,30.667c-1.943,2.326-1.652,3.082-3.609,0.739c-3.557-4.256-7.112-8.512-10.668-12.768
	c-6.999-8.376-13.997-16.752-20.996-25.128c0.391,0.468-0.177,7.291-0.177,7.322c-0.057,5.893-0.072,11.785-0.072,17.678
	s0.016,11.785,0.072,17.678c0.004,0.38-0.444,6.579,0.177,7.322c0.584,0.699,1.168,1.397,1.752,2.097l57.554,351.279
	c0,20.984,122.228,38,272.992,38c150.772,0,272.999-17.016,272.999-38l57.875-353.232c0.039-0.048,0.082-0.096,0.121-0.144
	C790.924,522.266,790.475,516.066,790.479,515.687z"/>
<path fill="#F5A3C4" d="M556.127,91.391c-21.98-10.578-43.511-3.311-62.558-17.623c-19.051-14.312-3.602-84.107-13.758-56.16
	c-21.59,8.891-23.488,46.598-36.426,46.598s-33.469,34.201-58.378,34.635s-98.659,81.711-60.505,81.709
	c34.205,0-4.145-7.734-51.044,13.641c-47.157,21.496-89.784,105.164-36.278,107.076c21.293,14.336-14.344-25.158-53.408,7.896
	c-39.564,33.479-65.322,106.947-3.316,126.764c70.395,13.975,88.487,9.364,146.922,18.255c58.435,8.893,154.98,7.811,215.96,4
	c60.977-3.812,168.723-17.12,168.723-17.12s66.949-9.248,66.949-90.354c-17.699-71.396-126.379-101.569-97.039-80.731
	s29.395-56.543-14.727-77.74c-48.816-23.455-119.918-12.926-66.168-12.926C613.604,178.533,612.502,118.527,556.127,91.391z"/>
<g>
	<g>
		<g>
			<path fill="#E37DB2" stroke="#E37DB2" d="M470.918,385.229c33.701-7.581,55.557-34.004,83.406-47.158
				c13.689-6.463,27.165-10.87,38.917-16.527c11.992-5.597,22.588-11.465,32.291-17.259c19.209-11.704,36.128-19.754,48.653-22.43
				c12.464-2.889,19.604-2.178,19.587-1.909c0.055,0.552-7.012,0.654-18.986,4.165c-12.072,3.323-28.109,11.636-47.066,23.808
				c-9.492,5.992-20.38,12.301-32.309,18.102c-12.038,6.023-25.504,10.628-38.685,17.029c-13.372,5.981-25.038,16.135-38.453,25.565
				c-13.027,9.711-28.906,17.94-45.657,22.368c-33.526,9.758-66.71,11.803-96.394,13.497c-29.722,1.6-56.58,2.649-78.542,6.226
				c-21.909,4.265-39.789,8.897-52.5,9.763c-12.696,1.094-19.71-0.215-19.657-0.549c0.025-0.488,7.005,0.014,19.386-1.77
				c12.447-1.561,29.799-6.731,51.978-11.611c22.444-4.206,49.307-5.666,79.006-7.577
				C405.505,396.979,438.27,394.743,470.918,385.229z"/>
		</g>
	</g>
</g>
<g>
	<g>
		<g>
			<path fill="#E277A6" stroke="#E277A6" d="M556.578,408.489c11.396-6.895,22.382-14.176,32.919-21.025
				c10.217-6.952,19.141-15.205,27.509-23.198c16.64-16.11,31.52-31.242,46.102-41.61c29.398-22.082,54.598-18.232,53.737-17.53
				c0.502,0.961-23.492-1.272-51.207,20.936c-13.88,10.52-28.214,25.699-44.782,42.172c-8.345,8.174-17.35,16.703-28.056,24.093
				c-10.657,7.025-21.521,14.279-33.115,21.296c-11.563,6.995-23.211,13.399-35.212,18.235c-12.007,5.16-24.817,6.91-36.374,7.802
				c-23.499,1.876-44.58,0.519-62.16-0.59c-35.148-2.764-56.8-3.881-56.828-4.576c-0.024-0.964,21.895-1.338,57.048,0.34
				C460.716,435.404,512.024,441.1,556.578,408.489z"/>
		</g>
	</g>
</g>
<g>
	<g>
		<g>
			<path fill="#E17FA8" stroke="#E17FA8" d="M692.98,387.812c5.957-9.294,11.282-20.476,20.635-26.437
				c8.979-6.131,18.409-7.907,25.626-9.85c14.864-3.164,21.984-9.276,22.579-8.646c0.75,0.455-6.297,8.386-21.377,12.714
				c-7.229,2.471-16.025,4.693-23.635,10.294c-7.907,5.313-12.357,15.077-18.792,25.187c-6.201,10.644-17.323,17.627-27.391,20.018
				c-9.966,2.886-19.181,3.882-26.856,4.382c-15.392,0.902-24.827-0.293-24.825-1.002c-0.016-0.943,9.456-1.263,24.412-3.22
				c7.452-1.019,16.328-2.433,25.647-5.445C678.364,403.121,687.259,397.452,692.98,387.812z"/>
		</g>
	</g>
</g>
<g>
	<g>
		<g>
			<path fill="#E795C0" stroke="#E795C0" d="M344.373,363.286c24.389-3.49,47.421-7.201,67.563-13.932
				c20.25-6.439,38.235-13.451,53.717-18.379c30.937-10.254,51.31-11.719,51.329-11.012c0.151,0.942-19.695,3.854-49.957,15.026
				c-15.184,5.398-32.963,12.805-53.392,19.626c-20.412,7.141-44.016,11.133-68.445,14.615c-49.179,6.721-94.12,7.173-126.468,7.093
				c-32.386-0.227-52.386-1.123-52.388-1.912c-0.003-0.866,20.02-1.471,52.339-2.33
				C250.961,371.078,295.644,369.948,344.373,363.286z"/>
		</g>
	</g>
</g>
<g>
	<g>
		<g>
			<path fill="#F2BED8" stroke="#F2BED8" d="M394.654,304.761c25.165-2.991,49.089-6.318,70.847-9.383
				c21.679-2.474,40.117-9.465,56.474-13.489c33.375-8.796,54.304,1.497,53.661,1.517c0,1.498-20.678-7.002-52.583,2.586
				c-15.753,4.41-34.588,12.003-56.736,14.854c-21.75,3.371-45.704,6.873-70.943,9.872c-101.004,12.836-183.78,10.485-183.671,9.01
				C211.688,317.889,294.025,317.552,394.654,304.761z"/>
		</g>
	</g>
</g>
<g>
	<g>
		<g>
			<path fill="#F6CFE2" stroke="#F6CFE2" d="M372.645,255.365c73.785,8.383,133.97,7.67,133.986,9.775
				c0.126,1.211-60.52,4.604-134.482-3.796c-36.735-2.794-70.356-0.7-94.695-0.438c-24.365,0.481-39.468-0.327-39.457-1.108
				c0.008-0.875,15.021-1.566,39.289-3.13C301.535,255.331,335.232,252.53,372.645,255.365z"/>
		</g>
	</g>
</g>
<g>
	<g>
		<g>
			<path fill="#F9D8E7" stroke="#F9D8E7" d="M431.472,200.882c22.285-2.5,43.334-2.764,60.903-10.061
				c17.671-6.553,31.854-16.698,40.932-27.57c18.398-22.422,15.629-42.839,17-42.226c0.316-0.021,1.206,4.542,0.146,12.796
				c-1.025,8.15-4.51,20.263-13.85,32.101c-9.169,11.858-23.881,22.925-42.26,30.065c-9.188,3.547-19.245,6.225-29.889,7.597
				c-10.656,1.135-21.25,1.989-32.333,3.262c-44.082,4.983-84.11,10.292-113.317,11.773c-29.197,1.669-47.29,0.59-47.275-0.155
				c0-0.91,18.013-1.334,46.951-4.075C347.446,211.837,387.187,205.889,431.472,200.882z"/>
		</g>
	</g>
</g>
<g>
	<g>
		<g>
			<path fill="#F8D6E6" stroke="#F8D6E6" d="M477.479,112.746c-1.8-32.234-2.837-59.224-0.496-59.156
				c0.987,0.138,4.653,25.971,6.494,59.018c0.49,16.552-1.781,31.798-5.648,42.101c-3.771,10.353-8.088,15.726-8.655,15.369
				C467.969,169.431,479.6,145.433,477.479,112.746z"/>
		</g>
	</g>
</g>
<g>
	<g>
		<g>
			<path fill="#F3C2DA" stroke="#F3C2DA" d="M545.804,194.714c3.767-9.028,7.054-17.667,10.828-25.538
				c3.79-7.737,7.562-14.302,10.053-20.058c5.219-11.441,5.311-19.47,6.275-19.439c0.685-0.14,2.153,8.411-2.326,20.99
				c-2.107,6.254-5.584,13.195-8.988,20.836c-3.31,7.568-6.525,16.453-10.302,25.512c-3.844,9.075-7.932,17.912-13.778,24.764
				c-5.724,6.925-12.845,11.416-19.107,13.678c-12.657,4.521-20.954,3.445-20.953,2.946c-0.2-1.108,8.025-1.673,19.285-6.846
				C528.598,226.892,539.008,213.015,545.804,194.714z"/>
		</g>
	</g>
</g>
<g>
	<g>
		<g>
			<path fill="#E077AF" stroke="#E077AF" d="M583.004,239.124c-5.641,12.347-16.176,19.505-23.493,23.138
				c-7.55,3.672-12.611,4.729-12.892,4.073c-1.64-2.15,20.279-8.499,30.933-29.714c4.738-10.705,5.469-22.01,6.435-29.998
				c0.793-8.076,1.467-13.144,2.322-13.139c0.8,0.005,1.629,5.043,1.917,13.295C588.296,214.936,588.388,226.83,583.004,239.124z"/>
		</g>
	</g>
</g>
<g>
	<g>
		<g>
			<path fill="#E48BBA" stroke="#E48BBA" d="M623.747,247.309c-1.722,15.525-8.269,28.96-15.059,36.597
				c-6.715,7.781-12.308,10.853-12.736,10.299c-1.477-1.086,19.126-17.525,21.843-47.65c1.748-14.615,1.132-28.305,1.427-38.224
				c0.17-9.94,0.935-16.117,1.76-16.107c0.831,0.009,1.566,6.094,2.479,15.961C624.238,218.038,625.581,231.836,623.747,247.309z"/>
		</g>
	</g>
</g>
<g>
	<g>
		<g>
			<path fill="#E58DBB" stroke="#E58DBB" d="M664.105,249.145c-1.483,13.26-9.718,24.031-16.883,28.561
				c-7.116,4.83-12.231,6.117-12.531,5.515c-1.875-1.818,20.601-10.113,23.487-35.01c2.447-24.149,1.839-45.127,4.048-44.967
				C663.298,203.353,666.698,223.272,664.105,249.145z"/>
		</g>
	</g>
</g>
<g>
	<g>
		<g>
			<rect x="20.983" y="255.812" fill="#CA4498" stroke="#CA4498" width="0" height="0"/>
		</g>
	</g>
</g>
<g>
	<g>
		<g>
			<path fill="#F5CBE0" stroke="#F5CBE0" d="M397.007,113.889c6.445-7.235,14.435-10.714,20.956-14.318
				c6.65-3.473,12.47-6.643,16.767-9.971c8.993-6.547,9.318-14.144,10.335-13.934c0.691-0.46,1.843,8.769-7.572,17.152
				c-8.305,8.649-24.873,13.769-35.974,25.025c-5.625,6.327-9.975,13.09-14.386,19.388c-4.325,6.377-10.229,11.549-15.936,13.708
				c-11.427,4.101-18.713,2.861-18.744,2.363c-0.221-1.084,7.203-1.571,16.967-6.215
				C379.667,142.974,384.987,127.457,397.007,113.889z"/>
		</g>
	</g>
</g>
<g>
	<g>
		<g>
			<path fill="#F8D6E6" stroke="#F8D6E6" d="M436.378,139.289c3.873-7.37,6.492-14.308,10.445-21.039
				c3.878-6.235,7.569-11.376,10.097-15.991c5.628-9.2,3.833-15.636,4.417-15.925c0.929-0.834,4.603,7.239-0.605,17.786
				c-2.197,5.171-5.69,10.807-9.127,16.905c-3.12,5.758-6.037,13.674-9.869,20.965c-7.297,15.101-17.234,27.544-26.274,34.158
				c-8.917,6.828-15.721,8.654-15.973,8.053c-0.468-0.875,5.533-4.042,13.238-11.296
				C420.58,165.814,429.233,154.009,436.378,139.289z"/>
		</g>
	</g>
</g>
<g>
	<g>
		<g>
			<path fill="#F3C5DC" stroke="#F3C5DC" d="M510.827,120.859c-9.318-15.365-10.439-30.343-8.885-30.443
				c1.754-0.296,5.292,12.993,14.044,27.381c8.809,14.334,17.16,25.682,15.731,26.817
				C530.586,145.558,520.129,135.963,510.827,120.859z"/>
		</g>
	</g>
</g>
<polygon opacity="0.5" stroke="#FBDBE9" points="131.828,490.262 151.875,512.053 201.557,879.873 196.327,879.873 "/>
<polygon opacity="0.5" stroke="#FBDBE9" points="393.644,490.262 416.839,511.181 412.917,903.92 406.683,902.545 "/>
<polygon opacity="0.5" stroke="#FBDBE9" points="458.651,485.032 481.339,511.181 480.151,904.834 473.495,903.92 "/>
<polygon opacity="0.5" stroke="#FBDBE9" points="524.045,485.032 547.58,510.31 542.979,901.662 535.814,901.662 "/>
<polygon opacity="0.5" stroke="#FBDBE9" points="590.287,485.032 614.693,510.31 608.732,892.947 602.49,892.947 "/>
<polygon opacity="0.5" stroke="#FBDBE9" points="654.787,485.032 680.064,512.924 675.705,885.104 669.607,885.104 "/>
<polygon opacity="0.5" stroke="#FBDBE9" points="722.775,485.032 746.307,508.566 722.775,870.287 718.311,873.771 "/>
<polyline opacity="0.5" stroke="#FBDBE9" points="350.6,901.17 345.518,899.795 327.069,484.161 350.6,511.181 "/>
<polygon opacity="0.5" stroke="#FBDBE9" points="257.595,484.161 280.974,509.917 292.66,893.607 286.474,892.947 "/>
<polygon opacity="0.5" stroke="#FBDBE9" points="192.959,484.161 218.4,510.604 241.779,885.104 234.903,885.104 "/>
</svg>
